<svg width="19" height="20" fill="none" xmlns="http://www.w3.org/2000/svg"><path d="M0 10c0 5.525 4.362 10 9.741 10 4.305 0 7.955-2.865 9.242-6.838.092-.5-.21-.683-.468-.683-.232 0-.844.009-1.657.013.588 2.781-1.306 3.368-1.306 3.368-1.125.455-1.425 1.113-1.425 1.113-.604.905-.592-.07-.592-.07.068-1.005 1.004-1.532 1.004-1.532 1.49-.892 1.059-2.341.81-2.913-.63-.09-1.059-.347-1.302-.633-.244 2.22-1.082 4.555-4.814 4.555a3.704 3.704 0 01-2.614-1.03c-.246.113-1.236.45-2.578-.087 0 0-.26-.837.999-2.75a9.844 9.844 0 01-.329-2.5c.005-.85.112-1.7.329-2.5-1.26-1.9-.999-2.737-.999-2.737 1.342-.538 2.332-.2 2.578-.1A3.72 3.72 0 019.233 3.65c3.742 0 4.566 2.337 4.805 4.562.293-.35.89-.675 1.803-.675 1.303 0 2.35.013 2.667.013.256 0 .56-.175.463-.688C17.692 2.863 14.039 0 9.74 0 4.361 0 0 4.478 0 10z" fill="#fff"/></svg>